<?xml version="1.0" standalone="no"?>
<!DOCTYPE svg PUBLIC "-//W3C//DTD SVG 20010904//EN"
 "http://www.w3.org/TR/2001/REC-SVG-20010904/DTD/svg10.dtd">
<svg version="1.0" xmlns="http://www.w3.org/2000/svg"
 width="89.000000pt" height="65.000000pt" viewBox="0 0 89.000000 65.000000"
 preserveAspectRatio="xMidYMid meet">

<g transform="translate(0.000000,65.000000) scale(0.100000,-0.100000)"
fill="#000000" stroke="none">
<path d="M102 643 c-72 -3 -92 -7 -92 -18 0 -12 17 -15 84 -15 47 0 87 -4 90
-8 2 -4 28 -111 57 -238 29 -126 56 -230 59 -232 3 -1 4 -20 2 -41 -5 -50 23
-81 73 -81 51 0 77 30 73 83 l-3 42 101 2 101 1 -4 -43 c-7 -54 20 -85 72 -85
50 0 78 31 73 81 -2 21 -1 40 3 41 7 3 89 367 89 394 0 12 -48 14 -320 14
l-319 0 -10 38 c-6 20 -11 45 -11 55 0 9 -6 16 -12 15 -7 -1 -55 -4 -106 -5z
m276 -185 l3 -48 -55 0 -55 0 -10 38 c-18 63 -17 63 52 60 l62 -3 3 -47z m147
2 l0 -45 -51 -3 -52 -3 -4 43 c-3 24 -3 47 -1 51 3 4 28 7 56 5 l52 -3 0 -45z
m151 19 c-3 -17 -6 -40 -6 -51 0 -17 -6 -19 -52 -16 -52 3 -53 4 -56 36 -5 55
1 62 64 62 l57 0 -7 -31z m164 25 c0 -3 -5 -25 -11 -50 l-11 -44 -54 0 -54 0
0 34 c0 60 6 66 71 66 32 0 59 -3 59 -6z m-457 -131 c3 -5 7 -24 9 -43 3 -35
3 -35 -41 -38 -51 -4 -57 1 -66 51 l-7 37 50 0 c28 0 53 -3 55 -7z m142 -38
l0 -40 -45 0 -45 0 -3 43 -3 43 48 -3 48 -3 0 -40z m133 3 l-3 -43 -45 0 c-42
0 -45 2 -48 28 -6 48 3 57 53 57 l46 0 -3 -42z m147 5 c-9 -50 -15 -55 -66
-51 -44 3 -44 3 -41 38 5 49 7 50 64 50 l50 0 -7 -37z m-405 -97 c0 -7 3 -28
6 -45 6 -31 6 -31 -35 -31 -35 0 -43 4 -51 26 -20 53 -14 64 35 64 32 0 45 -4
45 -14z m125 -31 c0 -38 -2 -40 -34 -43 -39 -4 -51 9 -51 56 0 33 0 33 43 30
42 -3 42 -3 42 -43z m125 23 c0 -56 -11 -69 -49 -66 -31 3 -36 7 -39 31 -6 46
4 57 48 57 35 0 40 -3 40 -22z m130 8 c0 -7 -3 -28 -6 -45 -6 -29 -9 -31 -50
-31 -47 0 -49 3 -38 59 6 29 9 31 50 31 31 0 44 -4 44 -14z m-361 -138 c11
-31 2 -58 -23 -68 -45 -16 -82 22 -65 68 12 32 76 32 88 0z m340 0 c11 -31 2
-58 -23 -68 -45 -16 -82 22 -65 68 12 32 76 32 88 0z"/>
</g>
</svg>
