<svg width="939" height="170" viewBox="0 0 939 170" fill="none" xmlns="http://www.w3.org/2000/svg">
<g clip-path="url(#clip0)">
<path d="M427.685 125.992L417.989 54.5546C417.14 48.3131 422.039 42.7617 428.402 42.7617H508.537L474.449 85.222C474.449 85.222 470.096 69.9583 460.127 55.8349H437.25C437.25 55.8349 461.288 106.977 461.288 135.014H438.098C432.836 135.014 428.382 131.153 427.685 125.992Z" fill="#072A42"/>
<path d="M480.954 135.013H512.072C512.072 135.013 516.143 52.4028 578.865 0C578.876 0 519.739 27.5067 480.954 135.013Z" fill="#072A42"/>
<path d="M14.7868 64.4265C12.2718 64.4265 10.3225 65.1567 8.94883 66.6271C7.56509 68.0874 6.87827 70.1279 6.87827 72.7485C6.87827 78.1899 9.51444 80.9105 14.7868 80.9105C16.9987 80.9105 19.6753 80.4804 22.8266 79.6202V83.9613C20.2409 84.7915 17.3522 85.2116 14.1605 85.2116C9.57504 85.2116 6.07025 84.1313 3.64619 81.9808C1.22213 79.8303 0 76.7295 0 72.6985C0 70.1579 0.595915 67.9374 1.78774 66.0269C2.97957 64.1164 4.69662 62.6561 6.92878 61.6358C9.16093 60.6156 11.7769 60.1055 14.7868 60.1055C17.8471 60.1055 20.9176 60.6756 24.0083 61.8259L21.8569 66.0369C20.6752 65.6068 19.4935 65.2267 18.3017 64.9066C17.0997 64.5866 15.9281 64.4265 14.7868 64.4265Z" fill="#555555"/>
<path d="M29.5229 84.8886V60.4727H36.1992V80.6176H48.976V84.8886H29.5229V84.8886Z" fill="#555555"/>
<path d="M54.4504 84.8886V60.4727H61.1267V84.8886H54.4504Z" fill="#555555"/>
<path d="M82.4484 64.4265C79.9334 64.4265 77.9841 65.1567 76.6104 66.6271C75.2267 68.0874 74.5399 70.1279 74.5399 72.7485C74.5399 78.1899 77.1761 80.9105 82.4484 80.9105C84.6603 80.9105 87.3369 80.4804 90.4882 79.6202V83.9613C87.9025 84.7915 85.0139 85.2116 81.8222 85.2116C77.2367 85.2116 73.7319 84.1313 71.3078 81.9808C68.8838 79.8303 67.6616 76.7295 67.6616 72.6985C67.6616 70.1579 68.2575 67.9374 69.4494 66.0269C70.6412 64.1164 72.3582 62.6561 74.5904 61.6358C76.8225 60.6156 79.4385 60.1055 82.4484 60.1055C85.5088 60.1055 88.5792 60.6756 91.6699 61.8259L89.5186 66.0369C88.3368 65.6068 87.1551 65.2267 85.9633 64.9066C84.7715 64.5866 83.5998 64.4265 82.4484 64.4265Z" fill="#555555"/>
<path d="M122.526 84.8886H114.941L106.689 74.5961L103.871 76.1665V84.8886H97.1946V60.4727H103.871V71.6454L106.497 68.7747L115.032 60.4727H122.445L111.456 71.2753L122.526 84.8886Z" fill="#555555"/>
<path d="M163.776 84.8886H157.12V74.346H144.646V84.8886H137.969V60.4727H144.646V70.045H157.12V60.4727H163.776V84.8886Z" fill="#555555"/>
<path d="M189.875 84.8886H171.735V60.4727H189.875V64.7137H178.411V70.075H189.077V74.316H178.411V80.6076H189.875V84.8886Z" fill="#555555"/>
<path d="M203.126 75.5163V84.8886H196.45V60.4727H205.631C209.914 60.4727 213.075 61.0728 215.135 62.2831C217.196 63.4934 218.216 65.3238 218.216 67.7844C218.216 69.2248 217.701 70.4951 216.681 71.6154C215.661 72.7356 214.216 73.6159 212.348 74.246C217.085 79.7373 220.175 83.2782 221.61 84.8886H214.196L206.671 75.5163H203.126V75.5163ZM203.126 71.3053H205.278C207.389 71.3053 208.944 71.0352 209.954 70.4851C210.964 69.945 211.459 69.0848 211.459 67.9145C211.459 66.7542 210.944 65.934 209.914 65.4439C208.883 64.9537 207.298 64.7037 205.136 64.7037H203.106V71.3053H203.126Z" fill="#555555"/>
<path d="M242.174 84.8886H224.034V60.4727H242.174V64.7137H230.71V70.075H241.376V74.316H230.71V80.6076H242.174V84.8886Z" fill="#555555"/>
<path d="M271.263 84.8886H264.687V60.4727H282.747V64.7137H271.263V71.0052H281.949V75.2262H271.263V84.8886Z" fill="#555555"/>
<path d="M315.441 72.6468C315.441 76.6878 314.148 79.7985 311.563 81.9691C308.977 84.1396 305.27 85.2299 300.442 85.2299C295.614 85.2299 291.908 84.1396 289.322 81.9691C286.736 79.7985 285.443 76.6778 285.443 72.6168C285.443 68.5558 286.736 65.445 289.332 63.3045C291.928 61.164 295.645 60.0938 300.483 60.0938C305.321 60.0938 309.027 61.174 311.593 63.3345C314.158 65.4851 315.441 68.5958 315.441 72.6468ZM292.443 72.6468C292.443 75.3775 293.109 77.428 294.443 78.8083C295.776 80.1886 297.776 80.8788 300.432 80.8788C305.765 80.8788 308.432 78.1381 308.432 72.6468C308.432 67.1455 305.785 64.3948 300.483 64.3948C297.826 64.3948 295.816 65.085 294.473 66.4753C293.12 67.8556 292.443 69.9161 292.443 72.6468Z" fill="#555555"/>
<path d="M327.571 75.5163V84.8886H320.895V60.4727H330.076C334.359 60.4727 337.52 61.0728 339.58 62.2831C341.641 63.4934 342.661 65.3238 342.661 67.7844C342.661 69.2248 342.146 70.4951 341.126 71.6154C340.106 72.7356 338.661 73.6159 336.793 74.246C341.53 79.7373 344.621 83.2782 346.055 84.8886H338.641L331.116 75.5163H327.571V75.5163ZM327.571 71.3053H329.723C331.834 71.3053 333.389 71.0352 334.399 70.4851C335.409 69.945 335.904 69.0848 335.904 67.9145C335.904 66.7542 335.389 65.934 334.359 65.4439C333.328 64.9537 331.743 64.7037 329.581 64.7037H327.551V71.3053H327.571Z" fill="#555555"/>
<path d="M19.4935 126.049L11.0396 106.894H10.8275C11.1305 110.795 11.282 113.396 11.282 114.696V126.049H4.62598V101.633H14.7565L23.069 120.307H23.2104L32.028 101.633H42.1585V126.049H35.2196V114.496C35.2196 113.956 35.2297 113.326 35.26 112.605C35.2802 111.895 35.3913 110.005 35.5832 106.924H35.3711L26.3213 126.049H19.4935V126.049Z" fill="#555555"/>
<path d="M81.7515 113.803C81.7515 117.844 80.2768 120.955 77.3275 123.125C74.3783 125.296 70.1564 126.386 64.6517 126.386C59.1471 126.386 54.9252 125.306 51.9759 123.125C49.0266 120.955 47.552 117.834 47.552 113.773C47.552 109.712 49.0266 106.601 51.986 104.461C54.9454 102.32 59.1774 101.25 64.7022 101.25C70.2271 101.25 74.449 102.33 77.3679 104.491C80.2869 106.641 81.7515 109.752 81.7515 113.803ZM55.5312 113.803C55.5312 116.534 56.2887 118.584 57.8139 119.965C59.339 121.345 61.6116 122.035 64.6416 122.035C70.722 122.035 73.7622 119.294 73.7622 113.803C73.7622 108.302 70.7422 105.551 64.6921 105.551C61.6621 105.551 59.3794 106.241 57.8341 107.632C56.3089 109.012 55.5312 111.072 55.5312 113.803Z" fill="#555555"/>
<path d="M94.7302 116.676V126.049H88.054V101.633H97.2351C101.518 101.633 104.679 102.233 106.739 103.443C108.79 104.654 109.82 106.484 109.82 108.945C109.82 110.385 109.305 111.655 108.285 112.776C107.265 113.896 105.82 114.776 103.952 115.406C108.689 120.897 111.779 124.438 113.214 126.049H105.8L98.2754 116.676H94.7302V116.676ZM94.7302 112.465H96.8816C98.9925 112.465 100.548 112.195 101.558 111.645C102.568 111.095 103.063 110.245 103.063 109.075C103.063 107.914 102.548 107.094 101.518 106.604C100.487 106.114 98.9016 105.874 96.7402 105.874H94.71V112.465H94.7302Z" fill="#555555"/>
<path d="M132.677 126.049H114.537V101.633H132.677V105.874H121.213V111.235H131.879V115.476H121.213V121.768H132.677V126.049Z" fill="#555555"/>
<path d="M160.503 116.676V126.049H153.17V101.633H163.24C167.937 101.633 171.411 102.233 173.674 103.443C175.926 104.654 177.057 106.484 177.057 108.945C177.057 110.385 176.502 111.655 175.381 112.776C174.259 113.896 172.674 114.776 170.623 115.406C175.825 120.897 179.219 124.438 180.794 126.049H172.664L164.412 116.676H160.503V116.676ZM160.503 112.465H162.866C165.179 112.465 166.896 112.195 167.997 111.645C169.098 111.095 169.654 110.245 169.654 109.075C169.654 107.914 169.088 107.094 167.967 106.604C166.836 106.114 165.099 105.874 162.725 105.874H160.503V112.465V112.465Z" fill="#555555"/>
<path d="M204.5 126.049H183.734V101.633H204.5V105.874H191.38V111.235H203.591V115.476H191.38V121.768H204.5V126.049V126.049Z" fill="#555555"/>
<path d="M229.205 101.621H235.952L225.246 126.037H217.963L207.277 101.621H214.024L219.953 116.155C220.286 117.015 220.62 118.015 220.973 119.155C221.327 120.296 221.549 121.086 221.63 121.536C221.791 120.516 222.327 118.715 223.246 116.155L229.205 101.621Z" fill="#555555"/>
<path d="M242.174 126.049V101.633H248.85V126.049H242.174Z" fill="#555555"/>
<path d="M275.121 126.049H254.011V101.633H275.121V105.874H261.778V111.235H274.192V115.476H261.778V121.768H275.121V126.049Z" fill="#555555"/>
<path d="M313.754 126.047H306.149L301.886 113.223C301.725 112.763 301.462 111.823 301.078 110.393C300.695 108.962 300.482 108.002 300.422 107.512C300.331 108.112 300.119 109.082 299.775 110.413C299.432 111.743 299.169 112.693 298.978 113.263L294.735 126.057H287.15L279.11 101.641H285.686L289.716 114.964C290.423 117.424 290.928 119.555 291.241 121.365C291.332 120.735 291.524 119.745 291.837 118.415C292.15 117.084 292.433 116.054 292.705 115.314L297.291 101.641H303.603L308.189 115.314C308.391 115.924 308.643 116.864 308.946 118.125C309.249 119.385 309.482 120.465 309.633 121.365C309.775 120.495 310.007 119.415 310.32 118.115C310.633 116.814 310.926 115.764 311.179 114.964L315.188 101.641H321.764L313.754 126.047Z" fill="#555555"/>
<path d="M347.226 119.266C347.226 121.466 346.206 123.207 344.156 124.477C342.106 125.747 339.257 126.377 335.611 126.377C332.248 126.377 329.278 125.887 326.693 124.907V120.096C328.814 120.836 330.622 121.346 332.086 121.646C333.561 121.946 334.904 122.096 336.126 122.096C337.591 122.096 338.712 121.876 339.5 121.446C340.277 121.016 340.671 120.366 340.671 119.506C340.671 119.026 340.5 118.605 340.156 118.225C339.813 117.855 339.308 117.495 338.641 117.145C337.975 116.805 336.611 116.245 334.561 115.495C332.632 114.795 331.187 114.124 330.228 113.474C329.268 112.824 328.501 112.074 327.925 111.224C327.349 110.363 327.066 109.363 327.066 108.223C327.066 106.062 328.016 104.362 329.904 103.132C331.793 101.891 334.409 101.281 337.742 101.281C339.379 101.281 340.944 101.431 342.429 101.731C343.914 102.031 345.469 102.452 347.095 103.002L344.944 107.023C343.267 106.493 341.873 106.112 340.772 105.902C339.671 105.692 338.591 105.582 337.53 105.582C336.268 105.582 335.298 105.812 334.621 106.262C333.945 106.723 333.611 107.313 333.611 108.053C333.611 108.513 333.743 108.903 334.025 109.243C334.298 109.583 334.732 109.913 335.328 110.233C335.924 110.554 337.338 111.124 339.56 111.944C342.51 113.034 344.52 114.124 345.62 115.225C346.681 116.325 347.226 117.675 347.226 119.266Z" fill="#555555"/>
<path d="M388.395 43.9609H383.244V136.623H388.395V43.9609Z" fill="#484848"/>
<path d="M579.946 120.342H556.059L547.373 135.826H531.212L569.896 70.5H588.733L596.157 135.826H581.158L579.946 120.342ZM579.189 108.769L577.876 93.1955C577.542 89.3046 577.371 85.5537 577.371 81.9328V80.3324C575.886 83.8933 574.058 87.6642 571.866 91.6351L562.372 108.769H579.189Z" fill="#072A42"/>
<path d="M646.063 100.557C646.063 106.019 643.81 110.3 639.306 113.41C634.801 116.521 628.589 118.082 620.671 118.082H617.236L612.893 135.746H600.733L613.055 86.0938H626.529C632.963 86.0938 637.821 87.3041 641.113 89.7146C644.416 92.1152 646.063 95.7361 646.063 100.557ZM619.681 109.539H624.438C628.215 109.539 631.185 108.759 633.346 107.199C635.508 105.639 636.599 103.538 636.599 100.917C636.599 96.8464 634.003 94.8059 628.821 94.8059H623.347L619.681 109.539Z" fill="#072A42"/>
<path d="M692.927 100.647C692.927 106.108 690.635 110.389 686.049 113.5C681.464 116.611 675.141 118.171 667.081 118.171H663.586L659.162 135.836H646.79L659.324 86.1836H673.04C679.585 86.1836 684.534 87.3939 687.887 89.8045C691.251 92.2051 692.927 95.816 692.927 100.647ZM665.818 109.539H668.091C671.929 109.539 674.959 108.759 677.161 107.199C679.363 105.638 680.464 103.538 680.464 100.917C680.464 96.8462 677.828 94.8057 672.555 94.8057H669.556L665.818 109.539Z" fill="#072A42"/>
<path d="M711.118 116.781L706.139 135.836H693.382L706.31 86.1836H721.329C727.935 86.1836 732.904 87.3339 736.217 89.6444C739.53 91.955 741.197 95.3358 741.197 99.7969C741.197 103.378 740.035 106.449 737.722 109.019C735.409 111.59 732.076 113.5 727.723 114.741L738.641 135.836H724.753L716.098 116.781H711.118V116.781ZM713.33 108.219H716.592C720.249 108.219 723.087 107.569 725.127 106.278C727.167 104.988 728.177 103.018 728.177 100.367C728.177 98.5066 727.511 97.1163 726.188 96.186C724.865 95.2558 722.774 94.7957 719.936 94.7957H716.845L713.33 108.219Z" fill="#072A42"/>
<path d="M795.455 103.94C795.455 110.352 794.183 116.083 791.648 121.144C789.112 126.205 785.638 130.026 781.234 132.607C776.831 135.188 771.75 136.478 766.013 136.478C759.448 136.478 754.337 134.808 750.661 131.467C746.984 128.126 745.146 123.495 745.146 117.553C745.146 111.552 746.419 106.03 748.954 100.999C751.489 95.958 754.984 92.0971 759.448 89.3964C763.902 86.7058 769.053 85.3555 774.901 85.3555C781.436 85.3555 786.496 86.9859 790.082 90.2467C793.657 93.5175 795.455 98.0786 795.455 103.94ZM773.932 94.1276C770.831 94.1276 767.983 95.1679 765.397 97.2384C762.811 99.3089 760.781 102.16 759.307 105.78C757.832 109.401 757.095 113.332 757.095 117.563C757.095 120.894 757.943 123.405 759.65 125.105C761.357 126.806 763.761 127.656 766.862 127.656C769.962 127.656 772.79 126.666 775.336 124.705C777.881 122.735 779.881 119.954 781.315 116.353C782.749 112.752 783.466 108.711 783.466 104.23C783.466 101.019 782.638 98.5287 780.972 96.7782C779.295 95.0078 776.952 94.1276 773.932 94.1276Z" fill="#072A42"/>
<path d="M814.05 125.675C816.05 120.674 817.464 117.463 818.282 116.063L834.917 86.1758H847.088L818.292 135.828H805.434L800.546 86.1758H811.909L813.868 116.063C813.969 117.083 814.02 118.584 814.02 120.584C813.969 122.915 813.888 124.615 813.787 125.675H814.05V125.675Z" fill="#072A42"/>
<path d="M875.995 135.715H842.775L855.34 86.0625H888.6L886.408 94.6846H865.591L862.864 105.587H882.257L880.025 114.219H860.632L857.38 127.022H878.196L875.995 135.715Z" fill="#072A42"/>
<path d="M939 104.958C939 111.3 937.707 116.811 935.111 121.482C932.516 126.153 928.769 129.714 923.86 132.165C918.951 134.605 913.164 135.836 906.497 135.836H888.6L900.862 86.1836H916.578C923.718 86.1836 929.243 87.804 933.152 91.0448C937.051 94.2656 939 98.9167 939 104.958ZM907.053 127.134C910.972 127.134 914.386 126.273 917.295 124.553C920.204 122.833 922.476 120.302 924.122 116.961C925.759 113.62 926.587 109.799 926.587 105.498C926.587 102.007 925.627 99.3568 923.708 97.5364C921.789 95.7159 919.032 94.8057 915.436 94.8057H910.871L902.851 127.144H907.053V127.134Z" fill="#072A42"/>
<path d="M642.628 63.1527C642.628 66.2635 641.548 68.7041 639.386 70.4745C637.225 72.2349 634.235 73.1252 630.437 73.1252C627.296 73.1252 624.69 72.565 622.62 71.4548V66.4735C625.205 67.9139 627.831 68.6341 630.478 68.6341C632.528 68.6341 634.144 68.204 635.326 67.3337C636.507 66.4635 637.103 65.2632 637.103 63.7229C637.103 62.7026 636.8 61.7924 636.184 61.0022C635.568 60.212 634.285 59.2018 632.316 57.9615C630.74 56.9712 629.579 56.061 628.831 55.2508C628.084 54.4406 627.508 53.5404 627.114 52.5702C626.72 51.5999 626.518 50.5297 626.518 49.3594C626.518 47.4589 626.983 45.7785 627.902 44.3082C628.821 42.8378 630.124 41.7075 631.811 40.9073C633.498 40.1071 635.396 39.707 637.507 39.707C640.578 39.707 643.426 40.3872 646.062 41.7575L644.133 46.0086C641.719 44.8483 639.517 44.2781 637.507 44.2781C635.871 44.2781 634.568 44.7082 633.578 45.5785C632.589 46.4487 632.094 47.5789 632.094 48.9693C632.094 49.6695 632.205 50.2796 632.427 50.7997C632.649 51.3299 633.003 51.82 633.467 52.2701C633.932 52.7202 634.942 53.4304 636.487 54.3906C638.81 55.8309 640.406 57.2213 641.295 58.5616C642.184 59.8819 642.628 61.4223 642.628 63.1527Z" fill="#FFAB2B"/>
<path d="M682.252 72.6781H676.909L680.05 58.0245H667.334L664.213 72.6781H658.89L665.829 40.1602H671.152L668.303 53.4634H681.02L683.868 40.1602H689.191L682.252 72.6781Z" fill="#FFAB2B"/>
<path d="M730.905 52.1698C730.905 56.3108 730.198 59.9917 728.773 63.2225C727.349 66.4532 725.39 68.9139 722.895 70.5943C720.4 72.2747 717.512 73.1149 714.219 73.1149C710.34 73.1149 707.341 72.0046 705.21 69.7941C703.078 67.5735 702.018 64.5128 702.018 60.5918C702.018 56.6309 702.755 53.02 704.23 49.7492C705.704 46.4784 707.725 43.9778 710.28 42.2374C712.835 40.4969 715.744 39.6367 718.996 39.6367C722.754 39.6367 725.683 40.737 727.763 42.9475C729.864 45.1681 730.905 48.2388 730.905 52.1698ZM718.582 44.2078C716.512 44.2078 714.643 44.918 712.967 46.3384C711.29 47.7587 709.977 49.7392 709.027 52.2698C708.078 54.8004 707.603 57.5611 707.603 60.5518C707.603 63.1124 708.209 65.0929 709.431 66.4933C710.654 67.8836 712.35 68.5838 714.542 68.5838C716.613 68.5838 718.471 67.8736 720.128 66.4633C721.784 65.0429 723.067 63.0824 723.986 60.5718C724.905 58.0612 725.37 55.2705 725.37 52.2198C725.37 49.6992 724.774 47.7387 723.592 46.3283C722.4 44.908 720.734 44.2078 718.582 44.2078Z" fill="#FFAB2B"/>
<path d="M767.589 49.0823C767.589 52.7632 766.316 55.5839 763.781 57.5544C761.246 59.5249 757.701 60.5151 753.166 60.5151H750.691L748.106 72.6781H742.783L749.722 40.1602H757.226C760.65 40.1602 763.236 40.9103 764.973 42.3907C766.72 43.8811 767.589 46.1116 767.589 49.0823ZM751.661 56.044H753.772C756.438 56.044 758.499 55.4539 759.963 54.2736C761.428 53.0933 762.155 51.4229 762.155 49.2624C762.155 47.642 761.721 46.4717 760.842 45.7215C759.963 44.9713 758.62 44.6112 756.812 44.6112H754.135L751.661 56.044Z" fill="#FFAB2B"/>
<path d="M806.131 49.0823C806.131 52.7632 804.859 55.5839 802.324 57.5544C799.788 59.5249 796.243 60.5151 791.708 60.5151H789.234L786.648 72.6781H781.325L788.264 40.1602H795.769C799.193 40.1602 801.778 40.9103 803.515 42.3907C805.263 43.8811 806.131 46.1116 806.131 49.0823ZM790.203 56.044H792.314C794.981 56.044 797.041 55.4539 798.506 54.2736C799.97 53.0933 800.697 51.4229 800.697 49.2624C800.697 47.642 800.263 46.4717 799.384 45.7215C798.506 44.9713 797.162 44.6112 795.354 44.6112H792.678L790.203 56.044Z" fill="#FFAB2B"/>
<path d="M835.836 72.6781H818.403L825.342 40.1602H842.775L841.805 44.7213H829.695L827.806 53.5034H839.078L838.159 58.0145H826.857L824.706 68.157H836.816L835.836 72.6781Z" fill="#FFAB2B"/>
<path d="M863.561 59.6849L860.794 72.6781H855.471L862.41 40.1602H870.005C873.348 40.1602 875.904 40.8603 877.691 42.2607C879.469 43.661 880.368 45.8115 880.368 48.7222C880.368 51.1728 879.722 53.2333 878.429 54.9137C877.136 56.5942 875.207 57.8245 872.641 58.5947L878.237 72.6781H872.399L867.753 59.6849H863.561V59.6849ZM864.531 55.2838H867.298C869.844 55.2838 871.742 54.7237 873.005 53.6134C874.267 52.5032 874.894 50.9728 874.894 49.0323C874.894 47.4719 874.449 46.3517 873.571 45.6715C872.682 44.9913 871.318 44.6513 869.46 44.6513H866.783L864.531 55.2838Z" fill="#FFAB2B"/>
<path d="M442.896 170C449.562 170 454.966 164.648 454.966 158.047C454.966 151.445 449.562 146.094 442.896 146.094C436.23 146.094 430.826 151.445 430.826 158.047C430.826 164.648 436.23 170 442.896 170Z" fill="#072A42"/>
<path d="M494.559 170C501.225 170 506.628 164.648 506.628 158.047C506.628 151.445 501.225 146.094 494.559 146.094C487.893 146.094 482.489 151.445 482.489 158.047C482.489 164.648 487.893 170 494.559 170Z" fill="#072A42"/>
</g>
<defs>
<clipPath id="clip0">
<rect width="939" height="170" fill="white"/>
</clipPath>
</defs>
</svg>
